<svg width="512" height="512" viewBox="0 0 512 512" fill="none" xmlns="http://www.w3.org/2000/svg">
<g id="instagram 1">
<g id="background">
<path id="Vector" d="M512 256C512 397.387 397.387 512 256 512C114.613 512 0 397.387 0 256C0 114.613 114.613 0 256 0C397.387 0 512 114.613 512 256Z" fill="url(#paint0_linear)"/>
</g>
<g id="outline">
<g id="Group">
<path id="Vector_2" d="M329.637 433H182.363C125.367 433 79 386.633 79 329.637V182.363C79 125.367 125.367 79 182.363 79H329.637C386.633 79 433 125.367 433 182.363V329.637C433 386.633 386.633 433 329.637 433V433ZM182.363 109C141.91 109 109 141.91 109 182.363V329.637C109 370.09 141.91 403 182.363 403H329.637C370.09 403 403 370.09 403 329.637V182.363C403 141.91 370.09 109 329.637 109H182.363Z" fill="white"/>
<path id="Vector_3" d="M256 352C203.066 352 160 308.934 160 256C160 203.066 203.066 160 256 160C308.934 160 352 203.066 352 256C352 308.934 308.934 352 256 352ZM256 190C219.605 190 190 219.605 190 256C190 292.395 219.605 322 256 322C292.395 322 322 292.395 322 256C322 219.605 292.395 190 256 190Z" fill="white"/>
<path id="Vector_4" d="M365.832 159.898C365.832 167.48 359.684 173.629 352.102 173.629C344.52 173.629 338.371 167.48 338.371 159.898C338.371 152.316 344.52 146.168 352.102 146.168C359.684 146.168 365.832 152.316 365.832 159.898V159.898Z" fill="white"/>
</g>
</g>
</g>
<defs>
<linearGradient id="paint0_linear" x1="0" y1="256" x2="512" y2="256" gradientUnits="userSpaceOnUse">
<stop stop-color="#00F38D"/>
<stop offset="1" stop-color="#009EFF"/>
</linearGradient>
</defs>
</svg>
