<svg width="512" height="512" viewBox="0 0 512 512" fill="none" xmlns="http://www.w3.org/2000/svg">
<g id="linkedin 1">
<g id="background">
<path id="Vector" d="M512 256C512 397.387 397.387 512 256 512C114.613 512 0 397.387 0 256C0 114.613 114.613 0 256 0C397.387 0 512 114.613 512 256Z" fill="url(#paint0_linear)"/>
</g>
<path id="outline" d="M189.63 371.465H141.232V215.207H189.63V371.465ZM194.459 165.423C194.459 149.777 181.766 137.078 166.128 137.078C150.431 137.078 137.77 149.777 137.77 165.423C137.77 181.074 150.431 193.773 166.128 193.773C181.766 193.773 194.459 181.074 194.459 165.423ZM370.773 285.498C370.773 243.552 361.912 212.441 312.911 212.441C289.366 212.441 273.561 224.217 267.108 236.462H267.062V215.207H220.047V371.465H267.062V293.882C267.062 273.563 272.235 253.88 297.42 253.88C322.262 253.88 323.066 277.115 323.066 295.172V371.465H370.773V285.498ZM433 391.516V120.484C433 97.6086 414.391 79 391.516 79H120.484C97.6086 79 79 97.6086 79 120.484V391.516C79 414.391 97.6086 433 120.484 433H391.516C414.391 433 433 414.391 433 391.516V391.516ZM391.516 106.656C399.14 106.656 405.344 112.86 405.344 120.484V391.516C405.344 399.14 399.14 405.344 391.516 405.344H120.484C112.86 405.344 106.656 399.14 106.656 391.516V120.484C106.656 112.86 112.86 106.656 120.484 106.656H391.516Z" fill="white"/>
</g>
<defs>
<linearGradient id="paint0_linear" x1="0" y1="256" x2="512" y2="256" gradientUnits="userSpaceOnUse">
<stop stop-color="#00F38D"/>
<stop offset="1" stop-color="#009EFF"/>
</linearGradient>
</defs>
</svg>
