<svg width="512" height="512" viewBox="0 0 512 512" fill="none" xmlns="http://www.w3.org/2000/svg">
<g id="whatsapp">
<g id="background">
<path id="Vector" d="M512 256C512 397.387 397.387 512 256 512C114.613 512 0 397.387 0 256C0 114.613 114.613 0 256 0C397.387 0 512 114.613 512 256Z" fill="url(#paint0_linear)"/>
</g>
<g id="outline">
<path id="Vector_2" d="M378.689 124.407C345.402 91.2764 301.12 73.0189 253.992 73C206.969 73 162.617 91.2412 129.111 124.364C95.5454 157.543 77.0433 201.637 77 248.361V248.415V248.447C77.0054 276.727 84.4425 305.256 98.5597 331.297L77.4839 427L174.382 404.98C198.924 417.337 226.306 423.851 253.924 423.862H253.995C301.01 423.862 345.362 405.618 378.873 372.492C412.468 339.286 430.978 295.249 431 248.496C431.014 202.072 412.438 158.002 378.689 124.407V124.407ZM253.992 396.232H253.93C229.131 396.222 204.56 390.002 182.876 378.24L178.294 375.755L113.861 390.396L127.856 326.851L125.158 322.203C111.744 299.093 104.656 273.581 104.656 248.417C104.707 166.969 171.692 100.629 253.986 100.629C293.743 100.645 331.098 116.043 359.171 143.98C387.667 172.349 403.355 209.464 403.341 248.488C403.309 329.955 336.311 396.232 253.992 396.232V396.232Z" fill="white"/>
<path id="Vector_3" d="M205.831 171.085H198.072C195.371 171.085 190.986 172.095 187.277 176.128C183.565 180.163 173.106 189.915 173.106 209.75C173.106 229.585 187.615 248.75 189.637 251.442C191.662 254.132 217.645 296.135 258.796 312.294C292.997 325.723 299.958 323.051 307.379 322.379C314.802 321.709 331.334 312.629 334.707 303.217C338.081 293.804 338.081 285.734 337.07 284.049C336.056 282.369 333.356 281.362 329.309 279.347C325.259 277.329 305.416 267.412 301.704 266.064C297.992 264.722 295.294 264.05 292.594 268.087C289.893 272.117 281.942 281.44 279.58 284.13C277.219 286.823 274.857 287.16 270.807 285.143C266.757 283.12 253.851 278.788 238.385 265.057C226.347 254.37 217.993 240.742 215.631 236.707C213.27 232.674 215.379 230.492 217.409 228.48C219.229 226.676 221.686 224.207 223.711 221.855C225.733 219.5 226.309 217.82 227.661 215.13C229.01 212.44 228.334 210.085 227.323 208.07C226.309 206.053 218.539 186.118 214.938 178.145H214.941C211.908 171.431 208.715 171.204 205.831 171.085V171.085Z" fill="white"/>
</g>
</g>
<defs>
<linearGradient id="paint0_linear" x1="0" y1="256" x2="512" y2="256" gradientUnits="userSpaceOnUse">
<stop stop-color="#00F38D"/>
<stop offset="1" stop-color="#009EFF"/>
</linearGradient>
</defs>
</svg>
