<svg width="512" height="512" viewBox="0 0 512 512" fill="none" xmlns="http://www.w3.org/2000/svg">
<g id="facebook 1">
<g id="background">
<path id="Vector" d="M512 256C512 397.387 397.387 512 256 512C114.613 512 0 397.387 0 256C0 114.613 114.613 0 256 0C397.387 0 512 114.613 512 256Z" fill="url(#paint0_linear)"/>
</g>
<g id="outline">
<path id="Vector_2" d="M390.543 79H121.457C98.0469 79 79 98.0469 79 121.457V390.543C79 413.953 98.0469 433 121.457 433H390.543C413.953 433 433 413.953 433 390.543V121.457C433 98.0469 413.953 79 390.543 79V79ZM403 390.543C403 397.41 397.41 403 390.543 403H312.289V292.383H354.703L361.711 249.82H312.289V220.305C312.289 208.652 321.23 199.711 332.883 199.711H361.023V157.152H332.883C297.926 157.152 269.742 185.469 269.742 220.426V249.82H228.543V292.379H269.742V403H121.457C114.59 403 109 397.41 109 390.543V121.457C109 114.59 114.59 109 121.457 109H390.543C397.41 109 403 114.59 403 121.457V390.543Z" fill="white"/>
</g>
</g>
<defs>
<linearGradient id="paint0_linear" x1="0" y1="256" x2="512" y2="256" gradientUnits="userSpaceOnUse">
<stop stop-color="#00F38D"/>
<stop offset="1" stop-color="#009EFF"/>
</linearGradient>
</defs>
</svg>
