<svg width="448" height="285" viewBox="0 0 448 285" fill="none" xmlns="http://www.w3.org/2000/svg">
<g id="Group 1">
<path id="Ellipse 1" d="M313.719 261.062L313.554 260.637L313.182 260.375C302.635 252.965 284.899 247.693 263.569 244.416C242.179 241.129 216.965 239.819 191.289 240.47C165.612 241.121 139.434 243.734 116.118 248.31C93.3656 252.774 73.2329 259.126 58.9445 267.417C-9.00904 199.703 -8.82452 125.557 19.1789 72.8227C33.2602 46.306 54.3759 25.2022 77.4318 13.0252C100.37 0.910292 125.113 -2.31966 146.793 6.54177C158.452 20.5266 170.429 29.5085 182.678 34.8042C195.013 40.137 207.541 41.6963 220.166 40.9443C240.356 39.7415 260.957 32.5917 281.473 25.4717C286.491 23.73 291.504 21.9902 296.504 20.3397C322.099 11.8915 347.476 5.72231 372.455 12.6724C397.304 19.5865 422.11 39.5974 446.319 84.2873C446.242 104.693 439.949 131.22 429.952 158.295C419.901 185.513 406.155 213.159 391.381 235.505C383.995 246.677 376.368 256.501 368.837 264.277C361.294 272.066 353.914 277.732 347.033 280.683C340.185 283.621 333.947 283.831 328.462 280.93C322.917 277.998 317.842 271.732 313.719 261.062Z" fill="#DF4C4C" stroke="black" stroke-width="3"/>
</g>
</svg>
