<svg height="512pt" viewBox="0 0 512 512" width="512pt" xmlns="http://www.w3.org/2000/svg" xmlns:xlink="http://www.w3.org/1999/xlink"><linearGradient id="a" gradientTransform="matrix(1 0 0 -1 0 -9462)" gradientUnits="userSpaceOnUse" x1="0" x2="512" y1="-9718" y2="-9718"><stop offset="0" stop-color="#00f38d"/><stop offset="1" stop-color="#009eff"/></linearGradient><path d="m512 256c0 141.386719-114.613281 256-256 256s-256-114.613281-256-256 114.613281-256 256-256 256 114.613281 256 256zm0 0" fill="url(#a)"/><g fill="#fff"><path d="m382.566406 192.355469h-253.132812c-18.4375 0-33.433594-14.996094-33.433594-33.429688v-29.492187c0-18.4375 14.996094-33.433594 33.433594-33.433594h253.132812c18.4375 0 33.433594 14.996094 33.433594 33.433594v29.492187c0 18.433594-14.996094 33.429688-33.433594 33.429688zm-253.132812-66.355469c-1.894532 0-3.433594 1.539062-3.433594 3.433594v29.492187c0 1.890625 1.539062 3.429688 3.433594 3.429688h253.132812c1.894532 0 3.433594-1.539063 3.433594-3.429688v-29.492187c0-1.894532-1.539062-3.433594-3.433594-3.433594zm0 0"/><path d="m382.566406 416h-253.132812c-18.4375 0-33.433594-14.996094-33.433594-33.433594v-29.492187c0-18.433594 14.996094-33.429688 33.433594-33.429688h253.132812c18.4375 0 33.433594 14.996094 33.433594 33.429688v29.492187c0 18.4375-14.996094 33.433594-33.433594 33.433594zm-253.132812-66.355469c-1.894532 0-3.433594 1.539063-3.433594 3.429688v29.492187c0 1.894532 1.539062 3.433594 3.433594 3.433594h253.132812c1.894532 0 3.433594-1.539062 3.433594-3.433594v-29.492187c0-1.890625-1.539062-3.429688-3.433594-3.429688zm0 0"/><path d="m382.566406 304.179688h-253.132812c-18.4375 0-33.433594-15-33.433594-33.433594v-29.492188c0-18.433594 14.996094-33.429687 33.433594-33.429687h253.132812c18.4375 0 33.433594 14.996093 33.433594 33.429687v29.492188c0 18.433594-14.996094 33.433594-33.433594 33.433594zm-253.132812-66.359376c-1.894532 0-3.433594 1.542969-3.433594 3.433594v29.492188c0 1.890625 1.539062 3.429687 3.433594 3.429687h253.132812c1.894532 0 3.433594-1.539062 3.433594-3.429687v-29.492188c0-1.894531-1.539062-3.433594-3.433594-3.433594zm0 0"/></g></svg>