<svg height="512pt" viewBox="0 0 512 512" width="512pt" xmlns="http://www.w3.org/2000/svg" xmlns:xlink="http://www.w3.org/1999/xlink"><linearGradient id="a" gradientUnits="userSpaceOnUse" x1="0" x2="512" y1="256" y2="256"><stop offset="0" stop-color="#00f38d"/><stop offset="1" stop-color="#009eff"/></linearGradient><path d="m512 256c0 141.386719-114.613281 256-256 256s-256-114.613281-256-256 114.613281-256 256-256 256 114.613281 256 256zm0 0" fill="url(#a)"/><g fill="#fff"><path d="m385.089844 94.976562h-258.179688c-22.800781 0-41.351562 18.550782-41.351562 41.355469v196.984375c0 22.800782 18.550781 41.351563 41.351562 41.351563h147.652344v62.335937l41.351562-17.558594 41.355469 17.578126v-62.355469h27.820313c22.800781 0 41.351562-18.550781 41.351562-41.351563v-196.984375c0-22.804687-18.550781-41.355469-41.351562-41.355469zm-96.324219 200.722657c-.003906-.164063-.011719-.320313-.015625-.464844v-2.273437l2.210938-.464844c.355468-.074219.714843-.160156 1.066406-.265625 5.023437-1.445313 9.421875-4.605469 12.382812-8.902344l1.429688-2.074219 2.484375.882813c4.894531 1.734375 10.285156 1.734375 15.183593 0l2.480469-.882813 1.433594 2.078125c2.960937 4.292969 7.355469 7.453125 12.382813 8.898438l2.617187.753906v1.96875c0 4.425781.867187 10.507813 4.839844 15.195313l1.066406 1.382812-1.425781 1.816406c-.25.316406-.488282.644532-.710938.984375-1.722656 2.601563-3.769531 6.824219-3.769531 12.179688v3.652343l-2.617187.75c-5.027344 1.445313-9.421876 4.605469-12.382813 8.902344l-1.433594 2.078125-2.480469-.882812c-4.898437-1.734375-10.289062-1.734375-15.183593 0l-2.484375.882812-1.429688-2.078125c-2.960937-4.296875-7.359375-7.457031-12.386718-8.902344l-2.613282-.75v-1.964843c0-6.027344-1.488281-10.878907-4.554687-14.820313l-1.398438-1.820312 1.425781-1.863282c4.183594-5.414062 3.972657-11.421874 3.882813-13.996093zm27.152344 91.152343-11.355469 4.820313v-18.394531c2.023438-.136719 4.046875-.535156 6.027344-1.234375l5.324218-1.890625 5.328126 1.890625c1.980468.703125 4.003906 1.101562 6.023437 1.238281v18.394531zm80.523437-53.535156c0 6.257813-5.089844 11.351563-11.351562 11.351563h-14.878906c1.464843-3.230469 2.277343-6.796875 2.210937-10.441407v-4.800781l3.097656-3.949219c6.40625-8.164062 6.421875-19.558593.050781-27.738281l-3.148437-4.089843v-6.585938c0-10.125-6.449219-18.523438-16.429687-21.390625l-5.371094-1.542969-3.128906-4.542968c-5.804688-8.417969-16.597657-11.90625-26.25-8.480469l-5.328126 1.890625-5.324218-1.886719c-9.652344-3.429687-20.445313.058594-26.25 8.476563l-2.9375 4.265624-5.007813 1.046876c-.359375.078124-.714843.164062-1.070312.265624-9.976563 2.871094-16.753907 11.925782-16.570313 22.082032v7.234375l-2.515625 3.285156c-6.332031 8.15625-6.324219 19.492187.019531 27.640625l3.152344 4.101562v6.691407c-.054687 3.011719.496094 5.863281 1.558594 8.46875h-134.058594c-6.261718 0-11.351562-5.09375-11.351562-11.351563v-196.984375c0-6.261719 5.089844-11.355469 11.351562-11.355469h258.179688c6.261718 0 11.351562 5.09375 11.351562 11.355469zm0 0"/><path d="m140.085938 147.683594h231.828124v30h-231.828124zm0 0"/><path d="m140.085938 200.386719h179.125v30h-179.125zm0 0"/><path d="m140.085938 253.09375h93.476562v30h-93.476562zm0 0"/></g></svg>